<?xml version="1.0" standalone="no"?>
<!DOCTYPE svg PUBLIC "-//W3C//DTD SVG 20010904//EN"
 "http://www.w3.org/TR/2001/REC-SVG-20010904/DTD/svg10.dtd">
<svg version="1.0" xmlns="http://www.w3.org/2000/svg"
 width="32.000000pt" height="32.000000pt" viewBox="0 0 32.000000 32.000000"
 preserveAspectRatio="xMidYMid meet">

<g transform="translate(0.000000,32.000000) scale(0.100000,-0.100000)"
fill="#000000" stroke="none">
<path d="M123 306 c-4 -8 -24 -16 -43 -18 -33 -3 -35 -5 -54 -73 -25 -89 -32
-181 -16 -200 18 -22 282 -22 300 0 16 19 9 111 -16 200 -19 68 -21 70 -54 73
-19 2 -39 10 -43 18 -4 8 -21 14 -37 14 -16 0 -33 -6 -37 -14z m67 -51 c0 -45
3 -55 17 -55 14 0 10 -7 -15 -32 l-32 -33 -32 33 c-25 25 -29 32 -15 32 14 0
17 10 17 55 0 54 0 55 30 55 30 0 30 -1 30 -55z m-70 15 c0 -5 -16 -10 -35
-10 -19 0 -35 5 -35 10 0 6 16 10 35 10 19 0 35 -4 35 -10z m150 0 c0 -5 -16
-10 -35 -10 -19 0 -35 5 -35 10 0 6 16 10 35 10 19 0 35 -4 35 -10z m-150 -35
c0 -11 -11 -15 -40 -15 -38 0 -49 8 -33 23 3 4 21 7 40 7 23 0 33 -5 33 -15z
m158 -2 c2 -9 -9 -13 -37 -13 -30 0 -41 4 -41 16 0 11 9 14 37 12 20 -2 38 -9
41 -15z m-182 -31 c-3 -5 10 -24 29 -42 l35 -34 35 34 c19 18 32 37 29 42 -3
4 11 8 30 8 32 0 36 -3 36 -25 0 -19 -5 -25 -21 -25 -12 0 -23 -8 -26 -20 -5
-18 -14 -20 -83 -20 -69 0 -78 2 -83 20 -3 12 -14 20 -26 20 -16 0 -21 6 -21
25 0 22 4 25 36 25 19 0 33 -4 30 -8z m-26 -72 c0 -19 7 -20 90 -20 84 0 90 1
90 21 0 16 5 20 28 17 26 -3 27 -5 27 -68 l0 -65 -145 0 -145 0 -3 54 c-4 68
1 81 33 81 18 0 25 -5 25 -20z"/>
</g>
</svg>
