<?xml version="1.0" encoding="UTF-8"?>
<svg version="1.1" xmlns="http://www.w3.org/2000/svg" width="50" height="50">
<path d="M0 0 C16.5 0 33 0 50 0 C50 16.5 50 33 50 50 C33.5 50 17 50 0 50 C0 33.5 0 17 0 0 Z " fill="#2A389A" transform="translate(0,0)"/>
<path d="M0 0 C1.05617271 -0.0049926 1.05617271 -0.0049926 2.13368225 -0.01008606 C3.62581731 -0.0151578 5.11796375 -0.01749431 6.61010742 -0.01733398 C8.89716232 -0.01951884 11.18373378 -0.03766674 13.47070312 -0.05664062 C14.91796709 -0.05957479 16.36523336 -0.06155943 17.8125 -0.0625 C18.49900131 -0.06968552 19.18550262 -0.07687103 19.89280701 -0.08427429 C24.74383256 -0.06085494 24.74383256 -0.06085494 26.97265625 2.16796875 C27.19970703 4.32275391 27.19970703 4.32275391 27.16796875 6.95703125 C27.16297363 7.80475098 27.15797852 8.6524707 27.15283203 9.52587891 C27.13462402 10.60401855 27.11641602 11.6821582 27.09765625 12.79296875 C27.05640625 16.21671875 27.01515625 19.64046875 26.97265625 23.16796875 C15.42265625 23.16796875 3.87265625 23.16796875 -8.02734375 23.16796875 C-8.04796875 19.55859375 -8.06859375 15.94921875 -8.08984375 12.23046875 C-8.09894775 11.09101807 -8.10805176 9.95156738 -8.11743164 8.77758789 C-8.1199292 7.88676514 -8.12242676 6.99594238 -8.125 6.078125 C-8.13023682 5.16168213 -8.13547363 4.24523926 -8.14086914 3.30102539 C-7.89232186 -1.36899101 -3.68352959 0.00595347 0 0 Z " fill="#01A9F5" transform="translate(10.02734375,12.83203125)"/>
<path d="M0 0 C7.26 0 14.52 0 22 0 C21.67 0.99 21.34 1.98 21 3 C14.73 2.67 8.46 2.34 2 2 C2 3.65 2 5.3 2 7 C8.6 7 15.2 7 22 7 C22 8.98 22 10.96 22 13 C21.34 12.34 20.68 11.68 20 11 C19.01 11 18.02 11 17 11 C17 11.99 17 12.98 17 14 C18.32 14 19.64 14 21 14 C20.67 14.99 20.34 15.98 20 17 C19.01 17 18.02 17 17 17 C16.67 18.32 16.34 19.64 16 21 C18.86724686 20.42655063 19.8614515 20.1385485 22 18 C22 25.59 22 33.18 22 41 C21.34 41 20.68 41 20 41 C20 42.32 20 43.64 20 45 C20.66 45.33 21.32 45.66 22 46 C16.39 46 10.78 46 5 46 C4.67 45.34 4.34 44.68 4 44 C1.97536745 43.34786708 1.97536745 43.34786708 0 43 C0 42.01 0 41.02 0 40 C0.78246094 39.93941406 1.56492187 39.87882812 2.37109375 39.81640625 C3.38300781 39.73261719 4.39492188 39.64882813 5.4375 39.5625 C6.44683594 39.48128906 7.45617188 39.40007813 8.49609375 39.31640625 C10.93640779 39.26788532 10.93640779 39.26788532 12 38 C12.08758003 36.00035018 12.10696576 33.9976389 12.09765625 31.99609375 C12.09282227 30.17368164 12.09282227 30.17368164 12.08789062 28.31445312 C12.07532227 26.39536133 12.07532227 26.39536133 12.0625 24.4375 C12.05798828 23.15423828 12.05347656 21.87097656 12.04882812 20.54882812 C12.03699555 17.3658658 12.01905944 14.18292726 12 11 C8.04 10.67 4.08 10.34 0 10 C0 6.7 0 3.4 0 0 Z " fill="#3849A4" transform="translate(25,2)"/>
<path d="M0 0 C4.52065428 -0.049377 9.04115217 -0.08570823 13.56201172 -0.10986328 C15.10045098 -0.11993118 16.63887107 -0.13358646 18.17724609 -0.15087891 C20.38644133 -0.17509317 22.59538395 -0.18647491 24.8046875 -0.1953125 C25.49432587 -0.20563507 26.18396423 -0.21595764 26.89450073 -0.22659302 C28.59800906 -0.22699478 30.30085943 -0.12191026 32 0 C34 2 34 2 34.22705078 4.15478516 C34.21657715 5.02409668 34.20610352 5.8934082 34.1953125 6.7890625 C34.19031738 7.63678223 34.18532227 8.48450195 34.18017578 9.35791016 C34.16196777 10.4360498 34.14375977 11.51418945 34.125 12.625 C34.08375 16.04875 34.0425 19.4725 34 23 C22.45 23 10.9 23 -1 23 C-1 22.01 -1 21.02 -1 20 C0.16015625 19.85304688 0.16015625 19.85304688 1.34375 19.703125 C10.92070915 18.32821502 17.48880091 16.44504695 23.7734375 8.87890625 C25.35173473 6.59566213 25.35173473 6.59566213 27 2 C18.09 1.67 9.18 1.34 0 1 C0 0.67 0 0.34 0 0 Z " fill="#0274B6" transform="translate(3,13)"/>
<path d="M0 0 C1.43352212 0.00015908 2.86704998 0.00585132 4.30053711 0.01586914 C5.43041298 0.01799156 5.43041298 0.01799156 6.58311462 0.02015686 C8.99807646 0.02577163 11.41294687 0.03832656 13.82788086 0.05102539 C15.46134307 0.05603849 17.09480672 0.06060173 18.72827148 0.06469727 C22.74067671 0.07574585 26.75301326 0.09302033 30.76538086 0.11352539 C30.43538086 1.10352539 30.10538086 2.09352539 29.76538086 3.11352539 C30.42538086 3.77352539 31.08538086 4.43352539 31.76538086 5.11352539 C30.98291992 5.16250977 30.20045898 5.21149414 29.39428711 5.26196289 C27.87641602 5.37411133 27.87641602 5.37411133 26.32788086 5.48852539 C25.31854492 5.55813477 24.30920898 5.62774414 23.26928711 5.69946289 C22.44299805 5.83610352 21.61670898 5.97274414 20.76538086 6.11352539 C20.43538086 6.77352539 20.10538086 7.43352539 19.76538086 8.11352539 C21.08538086 8.77352539 22.40538086 9.43352539 23.76538086 10.11352539 C23.76538086 10.77352539 23.76538086 11.43352539 23.76538086 12.11352539 C14.52538086 12.44352539 5.28538086 12.77352539 -4.23461914 13.11352539 C-4.23461914 0.14862238 -4.23461914 0.14862238 0 0 Z " fill="#394851" transform="translate(4.234619140625,36.886474609375)"/>
<path d="M0 0 C7.92 0 15.84 0 24 0 C23.67 3.96 23.34 7.92 23 12 C21.50726562 12.06058594 20.01453125 12.12117187 18.4765625 12.18359375 C16.52603138 12.26799173 14.57551108 12.3526401 12.625 12.4375 C11.14773438 12.49647461 11.14773438 12.49647461 9.640625 12.55664062 C8.22910156 12.61948242 8.22910156 12.61948242 6.7890625 12.68359375 C5.91975098 12.72025146 5.05043945 12.75690918 4.15478516 12.79467773 C1.9516738 12.87401544 1.9516738 12.87401544 0 14 C0 9.38 0 4.76 0 0 Z " fill="#F9F9F9" transform="translate(0,0)"/>
<path d="M0 0 C7.92 0 15.84 0 24 0 C24 16.5 24 33 24 50 C10.8 50 -2.4 50 -16 50 C-16 49.67 -16 49.34 -16 49 C-10.06 49 -4.12 49 2 49 C1.67 48.34 1.34 47.68 1 47 C-2.04581269 46.53045739 -2.04581269 46.53045739 -5.5625 46.375 C-6.76003906 46.30023438 -7.95757812 46.22546875 -9.19140625 46.1484375 C-10.11824219 46.09945312 -11.04507812 46.05046875 -12 46 C-12 45.67 -12 45.34 -12 45 C-8.7 45 -5.4 45 -2 45 C-1.67 44.34 -1.34 43.68 -1 43 C-1 43.66 -1 44.32 -1 45 C0.65 45.33 2.3 45.66 4 46 C4 46.66 4 47.32 4 48 C8.95 47.67 13.9 47.34 19 47 C19 46.01 19 45.02 19 44 C19.99 44 20.98 44 22 44 C22 29.81 22 15.62 22 1 C14.74 1 7.48 1 0 1 C0 0.67 0 0.34 0 0 Z " fill="#0A0B15" transform="translate(26,0)"/>
<path d="M0 0 C0.33 0 0.66 0 1 0 C1 2.97 1 5.94 1 9 C1.85464844 8.98839844 2.70929687 8.97679687 3.58984375 8.96484375 C4.69457031 8.95582031 5.79929687 8.94679688 6.9375 8.9375 C8.03964844 8.92589844 9.14179687 8.91429687 10.27734375 8.90234375 C13 9 13 9 14 10 C14.09983058 11.98757028 14.13080753 13.9786752 14.1328125 15.96875 C14.13474609 17.78439453 14.13474609 17.78439453 14.13671875 19.63671875 C14.13285156 20.91160156 14.12898438 22.18648437 14.125 23.5 C14.13080078 25.41232422 14.13080078 25.41232422 14.13671875 27.36328125 C14.13542969 28.57371094 14.13414063 29.78414062 14.1328125 31.03125 C14.13168457 32.15080078 14.13055664 33.27035156 14.12939453 34.42382812 C14 37 14 37 13 38 C10.98035801 38.07244053 8.95832876 38.08377188 6.9375 38.0625 C5.83277344 38.05347656 4.72804688 38.04445312 3.58984375 38.03515625 C2.73519531 38.02355469 1.88054688 38.01195312 1 38 C1 37.67 1 37.34 1 37 C1.63808594 36.95101562 2.27617187 36.90203125 2.93359375 36.8515625 C3.75988281 36.77679688 4.58617188 36.70203125 5.4375 36.625 C6.67306641 36.52058594 6.67306641 36.52058594 7.93359375 36.4140625 C8.95646484 36.20910156 8.95646484 36.20910156 10 36 C10.495 35.01 10.495 35.01 11 34 C-6.325 34.495 -6.325 34.495 -24 35 C-24.04125 31.08125 -24.0825 27.1625 -24.125 23.125 C-24.14320801 21.89023926 -24.16141602 20.65547852 -24.18017578 19.38330078 C-24.1851709 18.41376465 -24.19016602 17.44422852 -24.1953125 16.4453125 C-24.20578613 15.45031738 -24.21625977 14.45532227 -24.22705078 13.43017578 C-24 11 -24 11 -22 9 C-19.75341797 8.77294922 -19.75341797 8.77294922 -16.9921875 8.8046875 C-16.00605469 8.81113281 -15.01992187 8.81757813 -14.00390625 8.82421875 C-12.45509766 8.84935547 -12.45509766 8.84935547 -10.875 8.875 C-9.83472656 8.88402344 -8.79445313 8.89304687 -7.72265625 8.90234375 C-5.14820908 8.92596253 -2.57421788 8.95889851 0 9 C0 6.03 0 3.06 0 0 Z M-22 11 C-22.08700342 12.63472882 -22.10701063 14.27314055 -22.09765625 15.91015625 C-22.09515869 16.800979 -22.09266113 17.69180176 -22.09008789 18.60961914 C-22.08098389 19.74906982 -22.07187988 20.88852051 -22.0625 22.0625 C-22.041875 25.671875 -22.02125 29.28125 -22 33 C-10.45 33 1.1 33 13 33 C13.04125 29.57625 13.0825 26.1525 13.125 22.625 C13.14320801 21.54686035 13.16141602 20.4687207 13.18017578 19.35791016 C13.1851709 18.51019043 13.19016602 17.6624707 13.1953125 16.7890625 C13.20578613 15.91975098 13.21625977 15.05043945 13.22705078 14.15478516 C13.20595109 11.78654061 13.20595109 11.78654061 11 10 C8.57432881 9.81286014 6.26502333 9.74414722 3.83984375 9.76953125 C3.13477188 9.76998947 2.42970001 9.77044769 1.70326233 9.7709198 C0.21288368 9.77394137 -1.27749184 9.7818249 -2.76782227 9.79418945 C-5.05691633 9.81245544 -7.34560627 9.81469909 -9.63476562 9.81445312 C-11.08073269 9.81936794 -12.52669699 9.8251961 -13.97265625 9.83203125 C-14.66118179 9.83314407 -15.34970734 9.8342569 -16.05909729 9.83540344 C-19.3101166 9.59372197 -19.3101166 9.59372197 -22 11 Z " fill="#02080B" transform="translate(24,3)"/>
<path d="M0 0 C7.26 0 14.52 0 22 0 C21.67 0.99 21.34 1.98 21 3 C14.73 2.67 8.46 2.34 2 2 C2 3.65 2 5.3 2 7 C8.6 7 15.2 7 22 7 C22 8.98 22 10.96 22 13 C21.34 12.34 20.68 11.68 20 11 C19.01 11 18.02 11 17 11 C17 11.99 17 12.98 17 14 C18.32 14 19.64 14 21 14 C20.67 14.99 20.34 15.98 20 17 C19.01 17 18.02 17 17 17 C15.81968762 20.84841348 15.66764649 24.758279 15.4375 28.75 C15.39431641 29.44738281 15.35113281 30.14476563 15.30664062 30.86328125 C15.20110404 32.57531922 15.1001009 34.28763561 15 36 C14.67 36 14.34 36 14 36 C13.97494385 35.31373535 13.9498877 34.6274707 13.92407227 33.92041016 C13.80828573 30.82174183 13.68548115 27.72339077 13.5625 24.625 C13.52318359 23.54476563 13.48386719 22.46453125 13.44335938 21.3515625 C13.40146484 20.3203125 13.35957031 19.2890625 13.31640625 18.2265625 C13.27974854 17.27346191 13.24309082 16.32036133 13.20532227 15.33837891 C13.14236535 12.97867651 13.14236535 12.97867651 12 11 C9.1840151 10.53101037 9.1840151 10.53101037 5.9375 10.375 C4.28041016 10.26285156 4.28041016 10.26285156 2.58984375 10.1484375 C1.73519531 10.09945313 0.88054688 10.05046875 0 10 C0 6.7 0 3.4 0 0 Z " fill="#3A4BAA" transform="translate(25,2)"/>
<path d="M0 0 C6.27 0 12.54 0 19 0 C19.33 1.32 19.66 2.64 20 4 C19 5 19 5 17.14233398 5.11352539 C16.35157471 5.10828857 15.56081543 5.10305176 14.74609375 5.09765625 C13.89208984 5.09443359 13.03808594 5.09121094 12.15820312 5.08789062 C11.26037109 5.07951172 10.36253906 5.07113281 9.4375 5.0625 C8.53580078 5.05798828 7.63410156 5.05347656 6.70507812 5.04882812 C4.46998686 5.03700225 2.23502563 5.0205222 0 5 C0 3.35 0 1.7 0 0 Z " fill="#0D112F" transform="translate(27,4)"/>
<path d="M0 0 C0.33 0.66 0.66 1.32 1 2 C3.8159849 2.46898963 3.8159849 2.46898963 7.0625 2.625 C8.71958984 2.73714844 8.71958984 2.73714844 10.41015625 2.8515625 C11.26480469 2.90054688 12.11945312 2.94953125 13 3 C13 3.99 13 4.98 13 6 C11.68 6.33 10.36 6.66 9 7 C9 8.32 9 9.64 9 11 C6.03 11 3.06 11 0 11 C0 7.37 0 3.74 0 0 Z " fill="#FDFDFD" transform="translate(0,39)"/>
<path d="M0 0 C3.3 0 6.6 0 10 0 C8.38207319 3.23585361 7.44195891 4.83246068 5 7.25 C4.2265625 8.03117187 4.2265625 8.03117187 3.4375 8.828125 C2 10 2 10 0 10 C0 6.7 0 3.4 0 0 Z " fill="#7CCFF4" transform="translate(3,15)"/>
<path d="M0 0 C0.33 0.66 0.66 1.32 1 2 C3.52733235 2.65555119 3.52733235 2.65555119 6 3 C6 3.99 6 4.98 6 6 C11.94 6 17.88 6 24 6 C24 6.33 24 6.66 24 7 C11.46 7 -1.08 7 -14 7 C-14 6.67 -14 6.34 -14 6 C-8.06 6 -2.12 6 4 6 C3.67 5.34 3.34 4.68 3 4 C-0.04581269 3.53045739 -0.04581269 3.53045739 -3.5625 3.375 C-4.76003906 3.30023438 -5.95757812 3.22546875 -7.19140625 3.1484375 C-8.11824219 3.09945312 -9.04507812 3.05046875 -10 3 C-10 2.67 -10 2.34 -10 2 C-6.7 2 -3.4 2 0 2 C0 1.34 0 0.68 0 0 Z " fill="#000001" transform="translate(24,43)"/>
<path d="M0 0 C1.12329712 0.07069702 1.12329712 0.07069702 2.26928711 0.14282227 C3.07817383 0.19116211 3.88706055 0.23950195 4.72045898 0.28930664 C5.99566406 0.37341797 5.99566406 0.37341797 7.29663086 0.45922852 C8.57763672 0.53753906 8.57763672 0.53753906 9.88452148 0.61743164 C12.00135081 0.74751612 14.1177833 0.88402822 16.23413086 1.02172852 C16.56413086 2.01172852 16.89413086 3.00172852 17.23413086 4.02172852 C7.82913086 4.51672852 7.82913086 4.51672852 -1.76586914 5.02172852 C-2.09586914 3.70172852 -2.42586914 2.38172852 -2.76586914 1.02172852 C-1.76586914 0.02172852 -1.76586914 0.02172852 0 0 Z " fill="#37454C" transform="translate(10.765869140625,44.978271484375)"/>
<path d="M0 0 C7.26 0 14.52 0 22 0 C21.67 0.99 21.34 1.98 21 3 C14.73 3 8.46 3 2 3 C1.67 4.98 1.34 6.96 1 9 C0.67 9 0.34 9 0 9 C0 6.03 0 3.06 0 0 Z " fill="#4457C5" transform="translate(25,2)"/>
<path d="M0 0 C1.485 0.99 1.485 0.99 3 2 C4.32 2 5.64 2 7 2 C6.67 2.99 6.34 3.98 6 5 C5.01 5 4.02 5 3 5 C1.81968762 8.84841348 1.66764649 12.758279 1.4375 16.75 C1.39431641 17.44738281 1.35113281 18.14476563 1.30664062 18.86328125 C1.20110404 20.57531922 1.1001009 22.28763561 1 24 C0.67 24 0.34 24 0 24 C0 16.08 0 8.16 0 0 Z " fill="#4154BD" transform="translate(39,14)"/>
<path d="M0 0 C1.5003479 0.07069702 1.5003479 0.07069702 3.03100586 0.14282227 C4.1105957 0.19116211 5.19018555 0.23950195 6.30249023 0.28930664 C7.43879883 0.34538086 8.57510742 0.40145508 9.74584961 0.45922852 C11.45611328 0.53753906 11.45611328 0.53753906 13.20092773 0.61743164 C16.02864984 0.74757785 18.85605961 0.8825573 21.68334961 1.02172852 C21.68334961 1.35172852 21.68334961 1.68172852 21.68334961 2.02172852 C14.09334961 2.35172852 6.50334961 2.68172852 -1.31665039 3.02172852 C-1.64665039 5.99172852 -1.97665039 8.96172852 -2.31665039 12.02172852 C-2.64665039 12.02172852 -2.97665039 12.02172852 -3.31665039 12.02172852 C-3.34352318 10.209308 -3.36298755 8.39677618 -3.37915039 6.58422852 C-3.39075195 5.57489258 -3.40235352 4.56555664 -3.41430664 3.52563477 C-3.28737017 0.2709837 -3.2546036 0.03052584 0 0 Z " fill="#232638" transform="translate(26.316650390625,-0.021728515625)"/>
<path d="M0 0 C0.99 0 1.98 0 3 0 C3 1.65 3 3.3 3 5 C-2.94 5 -8.88 5 -15 5 C-15 4.67 -15 4.34 -15 4 C-10.05 3.67 -5.1 3.34 0 3 C0 2.01 0 1.02 0 0 Z " fill="#141A42" transform="translate(45,44)"/>
<path d="M0 0 C2.31 0 4.62 0 7 0 C7 0.99 7 1.98 7 3 C4.69 3 2.38 3 0 3 C0 2.01 0 1.02 0 0 Z " fill="#658392" transform="translate(15,42)"/>
<path d="M0 0 C0.99 0 1.98 0 3 0 C3.33 1.32 3.66 2.64 4 4 C2.35 4.33 0.7 4.66 -1 5 C-0.67 3.35 -0.34 1.7 0 0 Z " fill="#22231A" transform="translate(42,18)"/>
<path d="M0 0 C1.98 0.495 1.98 0.495 4 1 C3.67 2.32 3.34 3.64 3 5 C1.68 4.67 0.36 4.34 -1 4 C-0.67 2.68 -0.34 1.36 0 0 Z " fill="#222317" transform="translate(42,12)"/>
<path d="M0 0 C2.97 0 5.94 0 9 0 C9 0.33 9 0.66 9 1 C7.35 1 5.7 1 4 1 C4 1.66 4 2.32 4 3 C2.68 3 1.36 3 0 3 C0 2.01 0 1.02 0 0 Z " fill="#4458C6" transform="translate(25,42)"/>
</svg>
