<?xml version="1.0" encoding="UTF-8"?>
<svg version="1.1" xmlns="http://www.w3.org/2000/svg" width="50" height="50">
<path d="M0 0 C16.5 0 33 0 50 0 C50 16.5 50 33 50 50 C33.5 50 17 50 0 50 C0 33.5 0 17 0 0 Z " fill="#151513" transform="translate(0,0)"/>
<path d="M0 0 C7.26 0 14.52 0 22 0 C22 16.5 22 33 22 50 C19.69 50 17.38 50 15 50 C15.9590625 48.9790625 15.9590625 48.9790625 16.9375 47.9375 C19.37442867 44.46672281 19.84685133 42.21158841 20 38 C19.20358465 35.32114838 18.61293459 34.37209053 16.23046875 32.92578125 C13.72821974 31.88719453 11.69756884 31.66448591 9 31.5 C5.48211074 31.28549456 3.06977618 30.76227892 0 29 C1.5277867 25.56247993 3.50181056 22.81046312 6 20 C6.66 20 7.32 20 8 20 C7.67 16.37 7.34 12.74 7 9 C7 10.65 7 12.3 7 14 C6.67 13.34 6.34 12.68 6 12 C5.23816406 12.01160156 4.47632812 12.02320313 3.69140625 12.03515625 C-2.63840322 12.09047294 -8.72555549 11.8365926 -15 11 C-15.60546875 9.171875 -15.60546875 9.171875 -16 7 C-14.34376533 4.3009509 -13.73476983 3.38119688 -11 2 C-5.87906657 1.37969851 -0.91283159 1.36238947 4 3 C2.68 2.01 1.36 1.02 0 0 Z " fill="#FCFCFC" transform="translate(28,0)"/>
<path d="M0 0 C5.94 0 11.88 0 18 0 C16.35 1.32 14.7 2.64 13 4 C10.77267029 7.25217466 10.62815783 10.36824655 10.375 14.25 C10.30023438 15.32765625 10.22546875 16.4053125 10.1484375 17.515625 C10.09945313 18.33546875 10.05046875 19.1553125 10 20 C10.99 20.33 11.98 20.66 13 21 C18 26.46511628 18 26.46511628 18 29 C17.09636719 29.30292969 16.19273438 29.60585938 15.26171875 29.91796875 C14.08222656 30.33691406 12.90273437 30.75585938 11.6875 31.1875 C9.92986328 31.79658203 9.92986328 31.79658203 8.13671875 32.41796875 C4.47306721 34.26576311 3.43378714 35.17484224 2 39 C2 41.97 2 44.94 2 48 C13.22 48.33 24.44 48.66 36 49 C36 49.33 36 49.66 36 50 C24.12 50 12.24 50 0 50 C0 33.5 0 17 0 0 Z " fill="#FDFDFD" transform="translate(0,0)"/>
<path d="M0 0 C0.66 0.99 1.32 1.98 2 3 C5.3610028 3.64995002 8.62329566 3.51739825 12 3 C14.63516042 1.20808542 14.63516042 1.20808542 16 -1 C16.66 -0.67 17.32 -0.34 18 0 C17.505 0.515625 17.01 1.03125 16.5 1.5625 C14.47804964 4.84816934 14.72395798 7.20442221 15 11 C15.33 11.99 15.66 12.98 16 14 C6.43 14 -3.14 14 -13 14 C-13 10.37 -13 6.74 -13 3 C-3.56707317 -1.5777439 -3.56707317 -1.5777439 0 0 Z " fill="#4BB9D7" transform="translate(16,33)"/>
<path d="M0 0 C6 0.66666667 12 1.33333333 18 2 C18.29795219 4.92986323 18.50687865 7.14352761 18 10 C15.11756811 13.29420787 13.25851556 14.76884408 8.9375 15.5625 C5.32218892 14.87020639 3.61891584 13.54408967 1 11 C-0.20272819 8.59454362 -0.10071472 7.05003047 -0.0625 4.375 C-0.05347656 3.55773437 -0.04445313 2.74046875 -0.03515625 1.8984375 C-0.02355469 1.27195312 -0.01195312 0.64546875 0 0 Z " fill="#FBE1A2" transform="translate(14,12)"/>
<path d="M0 0 C2.4375 1.5625 2.4375 1.5625 4 4 C4.56288002 7.94016013 4.60396028 10.05782196 2.4375 13.4375 C-0.94217804 15.60396028 -3.05983987 15.56288002 -7 15 C-9.4375 13.4375 -9.4375 13.4375 -11 11 C-11.56288002 7.05983987 -11.60396028 4.94217804 -9.4375 1.5625 C-6.05782196 -0.60396028 -3.94016013 -0.56288002 0 0 Z " fill="#E0E8EC" transform="translate(43,33)"/>
<path d="M0 0 C2.82421875 1.23828125 2.82421875 1.23828125 5 3 C5.70703125 5.26171875 5.70703125 5.26171875 5.8125 7.6875 C5.86019531 8.49574219 5.90789063 9.30398438 5.95703125 10.13671875 C5.97121094 10.75160156 5.98539063 11.36648438 6 12 C5.67 11.34 5.34 10.68 5 10 C4.23816406 10.01160156 3.47632812 10.02320313 2.69140625 10.03515625 C-3.63840322 10.09047294 -9.72555549 9.8365926 -16 9 C-16.60546875 7.171875 -16.60546875 7.171875 -17 5 C-13.0703604 -1.40385713 -6.9629164 -1.11110368 0 0 Z " fill="#F7A158" transform="translate(29,2)"/>
<path d="M0 0 C4.97333608 -0.29254918 8.0436971 -0.16504232 12 3 C14.0691993 5.63352638 13.99930722 7.0381031 13.9375 10.4375 C12.77757342 14.84522102 11.62687859 16.25149694 8 19 C4.83666529 19.62560261 1.78701457 19.46938056 -1.421875 19.3046875 C-2.32246643 19.27778839 -3.22305786 19.25088928 -4.15093994 19.22317505 C-7.01870595 19.13108283 -9.88363193 19.00290705 -12.75 18.875 C-14.69393698 18.81025605 -16.63794921 18.74773086 -18.58203125 18.6875 C-32.8003204 18.1996796 -32.8003204 18.1996796 -34 17 C-34.16796875 15.00390625 -34.16796875 15.00390625 -34.1875 12.5625 C-34.20167969 11.75941406 -34.21585938 10.95632812 -34.23046875 10.12890625 C-34 8 -34 8 -32 6 C-32 9.3 -32 12.6 -32 16 C-30.68 16 -29.36 16 -28 16 C-28 13.69 -28 11.38 -28 9 C-27.67 9 -27.34 9 -27 9 C-27 11.31 -27 13.62 -27 16 C-19.08 16 -11.16 16 -3 16 C-2.67 15.34 -2.34 14.68 -2 14 C-1.01 14.66 -0.02 15.32 1 16 C5.64487771 16.44859705 5.64487771 16.44859705 9.9375 14.9375 C11.6140629 11.88023824 11.36528977 9.4093712 11 6 C9.71002395 3.66191842 8.53172021 3.16570373 6.01953125 2.3828125 C4.02623308 1.86773014 2.01355528 1.42911834 0 1 C0 0.67 0 0.34 0 0 Z " fill="#192122" transform="translate(35,31)"/>
<path d="M0 0 C2.65822762 2.65822762 2.35980571 4.1060254 2.4375 7.8125 C2.3554005 13.53893989 2.3554005 13.53893989 -0.3125 17 C-1.199375 17.66 -2.08625 18.32 -3 19 C-4.02813611 20.31175986 -5.04084432 21.6369893 -6 23 C-5.34 23.33 -4.68 23.66 -4 24 C-4.99 24 -5.98 24 -7 24 C-7.33 22.68 -7.66 21.36 -8 20 C-7.195625 19.505 -6.39125 19.01 -5.5625 18.5 C-2.01911662 15.04304061 -2.2426059 12.85211791 -2 8 C-4.31 8 -6.62 8 -9 8 C-9 7.67 -9 7.34 -9 7 C-4.545 6.505 -4.545 6.505 0 6 C0 4.02 0 2.04 0 0 Z " fill="#231E17" transform="translate(34,6)"/>
<path d="M0 0 C1.36125 0.12375 1.36125 0.12375 2.75 0.25 C3.41 2.56 4.07 4.87 4.75 7.25 C1.12 7.25 -2.51 7.25 -6.25 7.25 C-6.58 6.26 -6.91 5.27 -7.25 4.25 C-4.83923194 1.28290085 -3.90322061 0.30024774 0 0 Z " fill="#E0EAF0" transform="translate(39.25,32.75)"/>
<path d="M0 0 C2.5 1.5625 2.5 1.5625 5 4 C5.5 7.5625 5.5 7.5625 5 11 C3.5 12.9375 3.5 12.9375 2 14 C1.896875 13.360625 1.79375 12.72125 1.6875 12.0625 C1.460625 11.381875 1.23375 10.70125 1 10 C0.01 9.67 -0.98 9.34 -2 9 C-2.33 10.32 -2.66 11.64 -3 13 C-3 11.35 -3 9.7 -3 8 C-4.65 8 -6.3 8 -8 8 C-8 7.67 -8 7.34 -8 7 C-6.35 7 -4.7 7 -3 7 C-2.67 5.68 -2.34 4.36 -2 3 C-2 4.32 -2 5.64 -2 7 C-0.68 7 0.64 7 2 7 C1.67 6.401875 1.34 5.80375 1 5.1875 C0 3 0 3 0 0 Z " fill="#C4D6E1" transform="translate(42,33)"/>
<path d="M0 0 C4.97333608 -0.29254918 8.0436971 -0.16504232 12 3 C14.0691993 5.63352638 13.99930722 7.0381031 13.9375 10.4375 C12.79986824 14.7605007 11.62415648 16.40006166 8 19 C4.1875 19.3125 4.1875 19.3125 1 19 C1.33 18.34 1.66 17.68 2 17 C4.04243528 16.36614078 6.09132519 15.98173496 8.1875 15.5625 C8.785625 15.376875 9.38375 15.19125 10 15 C11.52491998 11.95016004 11.23562548 9.3576631 11 6 C9.71002395 3.66191842 8.53172021 3.16570373 6.01953125 2.3828125 C4.02623308 1.86773014 2.01355528 1.42911834 0 1 C0 0.67 0 0.34 0 0 Z " fill="#2D2E2F" transform="translate(35,31)"/>
<path d="M0 0 C6.5705166 -0.24794402 12.56971459 0.67611771 19 2 C19 2.33 19 2.66 19 3 C13.15659442 4.24327778 8.73303505 3.57300962 3 2 C3 4.64 3 7.28 3 10 C2.01 10 1.02 10 0 10 C0.50603992 7.83125748 0.99983813 6.00032373 2 4 C1.34 4 0.68 4 0 4 C0 2.68 0 1.36 0 0 Z " fill="#4B3824" transform="translate(11,10)"/>
<path d="M0 0 C1.36244796 1.64295195 2.69864875 3.30824337 4 5 C2.02 5.99 2.02 5.99 0 7 C-0.99 5.68 -1.98 4.36 -3 3 C-6.68266103 3.59950296 -10.34543185 4.24758891 -14 5 C-11.71264299 2.38167493 -9.73180263 1.31372869 -6.4375 0.25 C-5.65246094 -0.01296875 -4.86742187 -0.2759375 -4.05859375 -0.546875 C-2 -1 -2 -1 0 0 Z " fill="#1B424F" transform="translate(18,30)"/>
<path d="M0 0 C2.9375 0.9375 2.9375 0.9375 6 3 C6.84403097 5.99392117 6.98699834 8.89910366 7 12 C6.67 11.34 6.34 10.68 6 10 C5.01 10 4.02 10 3 10 C2.01 6.7 1.02 3.4 0 0 Z " fill="#DE843F" transform="translate(28,2)"/>
<path d="M0 0 C2.64 0 5.28 0 8 0 C7.67 1.32 7.34 2.64 7 4 C5.1875 4.625 5.1875 4.625 3 5 C2.01 4.34 1.02 3.68 0 3 C0 2.01 0 1.02 0 0 Z " fill="#E0C68F" transform="translate(19,28)"/>
<path d="M0 0 C0.66 0 1.32 0 2 0 C2.875 3.1875 2.875 3.1875 3 7 C1.21974097 9.21299892 -0.60637719 10.38796831 -3 12 C-3 9 -3 9 -1 6 C-0.60986284 4.0103005 -0.26797351 2.00980131 0 0 Z " fill="#EDC78F" transform="translate(29,15)"/>
<path d="M0 0 C1.65 0 3.3 0 5 0 C5.66 2.31 6.32 4.62 7 7 C5.68 7 4.36 7 3 7 C2.814375 5.824375 2.814375 5.824375 2.625 4.625 C2.20882007 1.85942178 2.20882007 1.85942178 0 0 Z " fill="#ECF6FB" transform="translate(37,33)"/>
<path d="M0 0 C1.32 0.66 2.64 1.32 4 2 C2.35 3.32 0.7 4.64 -1 6 C-1.66 5.67 -2.32 5.34 -3 5 C-1.125 1.125 -1.125 1.125 0 0 Z " fill="#176078" transform="translate(28,31)"/>
<path d="M0 0 C1.32 0.33 2.64 0.66 4 1 C3.67 2.65 3.34 4.3 3 6 C2.01 6 1.02 6 0 6 C0 4.02 0 2.04 0 0 Z " fill="#E2F1F9" transform="translate(40,42)"/>
<path d="M0 0 C0.33 1.32 0.66 2.64 1 4 C2.65 4 4.3 4 6 4 C6 4.33 6 4.66 6 5 C4.35 5 2.7 5 1 5 C1 6.65 1 8.3 1 10 C0.67 10 0.34 10 0 10 C0 8.35 0 6.7 0 5 C-1.65 5 -3.3 5 -5 5 C-5 4.67 -5 4.34 -5 4 C-3.35 4 -1.7 4 0 4 C0 2.68 0 1.36 0 0 Z " fill="#060707" transform="translate(39,36)"/>
<path d="M0 0 C0.66 0.33 1.32 0.66 2 1 C1.2884375 1.7734375 1.2884375 1.7734375 0.5625 2.5625 C-1.42809407 5.66782675 -1.65060818 8.36632504 -2 12 C-2.33 12 -2.66 12 -3 12 C-4.05699482 6.71502591 -4.05699482 6.71502591 -4 4 C-2.0625 1.5 -2.0625 1.5 0 0 Z " fill="#4DC5E6" transform="translate(32,32)"/>
</svg>
