<?xml version="1.0" encoding="UTF-8"?>
<svg version="1.1" xmlns="http://www.w3.org/2000/svg" width="50" height="50">
<path d="M0 0 C16.5 0 33 0 50 0 C50 16.5 50 33 50 50 C33.5 50 17 50 0 50 C0 33.5 0 17 0 0 Z " fill="#EBEBEB" transform="translate(0,0)"/>
<path d="M0 0 C4.57875 -0.061875 9.1575 -0.12375 13.875 -0.1875 C16.0403833 -0.22846802 16.0403833 -0.22846802 18.24951172 -0.27026367 C19.38146973 -0.27775635 20.51342773 -0.28524902 21.6796875 -0.29296875 C22.84226074 -0.3086792 24.00483398 -0.32438965 25.20263672 -0.34057617 C26.1257666 -0.22818604 27.04889648 -0.1157959 28 0 C28.66 0.99 29.32 1.98 30 3 C31.32 3 32.64 3 34 3 C34 4.32 34 5.64 34 7 C36.31 7.99 38.62 8.98 41 10 C40.67 10.99 40.34 11.98 40 13 C39.01 12.34 38.02 11.68 37 11 C37 11.66 37 12.32 37 13 C36.01 13 35.02 13 34 13 C34.495 15.475 34.495 15.475 35 18 C31.25 19.125 31.25 19.125 29 18 C29 18.99 29 19.98 29 21 C27.35 21 25.7 21 24 21 C23.67 21.99 23.34 22.98 23 24 C22.34 24 21.68 24 21 24 C18.52941176 18.07058824 18.52941176 18.07058824 18 15 C18.33 14.34 18.66 13.68 19 13 C18.01 13 17.02 13 16 13 C16 12.34 16 11.68 16 11 C12.37 11 8.74 11 5 11 C5 12.98 5 14.96 5 17 C8.96 17 12.92 17 17 17 C17 17.66 17 18.32 17 19 C15.82630859 18.98259766 15.82630859 18.98259766 14.62890625 18.96484375 C13.61699219 18.95582031 12.60507813 18.94679688 11.5625 18.9375 C10.55316406 18.92589844 9.54382813 18.91429688 8.50390625 18.90234375 C6.05978933 18.71387324 6.05978933 18.71387324 5 20 C8.96 20 12.92 20 17 20 C17 20.66 17 21.32 17 22 C13.04 22 9.08 22 5 22 C5 22.66 5 23.32 5 24 C8.96 24 12.92 24 17 24 C17 24.66 17 25.32 17 26 C15.82630859 25.98259766 15.82630859 25.98259766 14.62890625 25.96484375 C13.61699219 25.95582031 12.60507813 25.94679688 11.5625 25.9375 C10.55316406 25.92589844 9.54382813 25.91429688 8.50390625 25.90234375 C6.05978933 25.71387324 6.05978933 25.71387324 5 27 C8.96 27 12.92 27 17 27 C17 27.66 17 28.32 17 29 C13.04 29 9.08 29 5 29 C5 29.66 5 30.32 5 31 C7.31 31 9.62 31 12 31 C11.67 31.66 11.34 32.32 11 33 C9.35 33 7.7 33 6 33 C5.67 33.66 5.34 34.32 5 35 C4.34 35 3.68 35 3 35 C3 28.4 3 21.8 3 15 C2.34 15 1.68 15 1 15 C1 22.26 1 29.52 1 37 C5.95 37 10.9 37 16 37 C16.33 35.35 16.66 33.7 17 32 C17.99 31.34 18.98 30.68 20 30 C20.72382467 27.94074861 20.72382467 27.94074861 21 26 C21.66 26 22.32 26 23 26 C23 27.32 23 28.64 23 30 C23.61875 30.268125 24.2375 30.53625 24.875 30.8125 C27 32 27 32 29 35 C28.79511638 37.73178163 28.28363 39.52728333 26.875 41.875 C25 43 25 43 21.4375 42.9375 C18 42 18 42 16.5625 39.9375 C16.376875 39.298125 16.19125 38.65875 16 38 C15.34 38 14.68 38 14 38 C13.67 38.66 13.34 39.32 13 40 C12.67 39.67 12.34 39.34 12 39 C8.04 38.67 4.08 38.34 0 38 C0 25.46 0 12.92 0 0 Z " fill="#080909" transform="translate(0,0)"/>
<path d="M0 0 C0.33 0.99 0.66 1.98 1 3 C3.97 3 6.94 3 10 3 C10 11.58 10 20.16 10 29 C3.73 29 -2.54 29 -9 29 C-10.0125 23.9375 -10.0125 23.9375 -9 20 C-8.9072941 17.32697981 -8.95540201 14.67587931 -9 12 C-6.03 12 -3.06 12 0 12 C0 11.34 0 10.68 0 10 C-2.97 10 -5.94 10 -9 10 C-9 7.69 -9 5.38 -9 3 C-6.03 3 -3.06 3 0 3 C0 2.01 0 1.02 0 0 Z " fill="#1B0D09" transform="translate(40,21)"/>
<path d="M0 0 C3.63 0 7.26 0 11 0 C11 0.66 11 1.32 11 2 C11.99 2 12.98 2 14 2 C13.95875 2.78375 13.9175 3.5675 13.875 4.375 C13.71271266 7.16116119 13.71271266 7.16116119 16 9 C17.15613856 13.3355196 17.19710323 16.04521418 15 20 C14.01 20.66 13.02 21.32 12 22 C11.67 23.32 11.34 24.64 11 26 C6.05 26 1.1 26 -4 26 C-4 18.74 -4 11.48 -4 4 C-3.34 4 -2.68 4 -2 4 C-2 10.6 -2 17.2 -2 24 C-1.34 24 -0.68 24 0 24 C0.33 23.01 0.66 22.02 1 21 C2.65 21 4.3 21 6 21 C4.02 20.67 2.04 20.34 0 20 C0 19.34 0 18.68 0 18 C3.96 18 7.92 18 12 18 C12 17.34 12 16.68 12 16 C8.04 16 4.08 16 0 16 C0.33 15.34 0.66 14.68 1 14 C4.63 14.33 8.26 14.66 12 15 C12 14.34 12 13.68 12 13 C8.04 13 4.08 13 0 13 C0 12.34 0 11.68 0 11 C3.96 11 7.92 11 12 11 C12 10.34 12 9.68 12 9 C8.04 9 4.08 9 0 9 C0.33 8.34 0.66 7.68 1 7 C4.63 7.33 8.26 7.66 12 8 C12 7.34 12 6.68 12 6 C8.04 6 4.08 6 0 6 C0 4.02 0 2.04 0 0 Z " fill="#FDF6E2" transform="translate(5,11)"/>
<path d="M0 0 C7.26 0 14.52 0 22 0 C22 7.92 22 15.84 22 24 C19.03 24 16.06 24 13 24 C12.80467039 22.2300132 12.61901118 20.45895721 12.4375 18.6875 C12.33308594 17.70136719 12.22867188 16.71523438 12.12109375 15.69921875 C12 13 12 13 13 10 C12.236875 9.87625 11.47375 9.7525 10.6875 9.625 C8 9 8 9 5 7 C5 5.68 5 4.36 5 3 C3.68 3.33 2.36 3.66 1 4 C0.67 2.68 0.34 1.36 0 0 Z " fill="#FBFBFB" transform="translate(28,0)"/>
<path d="M0 0 C2.4375 0.375 2.4375 0.375 5 1 C5.33 1.66 5.66 2.32 6 3 C7.32 3 8.64 3 10 3 C10 4.32 10 5.64 10 7 C13.465 8.485 13.465 8.485 17 10 C16.67 10.99 16.34 11.98 16 13 C15.01 12.34 14.02 11.68 13 11 C13 11.66 13 12.32 13 13 C12.01 13 11.02 13 10 13 C10.33 14.65 10.66 16.3 11 18 C7.25 19.125 7.25 19.125 5 18 C5 18.99 5 19.98 5 21 C3.35 21 1.7 21 0 21 C-0.33 21.99 -0.66 22.98 -1 24 C-1.66 24 -2.32 24 -3 24 C-5.66016537 19.56639105 -4.72180377 16.09247774 -3.703125 11.3046875 C-3 9 -3 9 -1 6 C2.125 5.8125 2.125 5.8125 5 6 C5 6.66 5 7.32 5 8 C5.66 8 6.32 8 7 8 C7 9.98 7 11.96 7 14 C5.02 14.99 3.04 15.98 1 17 C1 17.99 1 18.98 1 20 C1.66 20 2.32 20 3 20 C3 19.01 3 18.02 3 17 C6.875 16 6.875 16 8 16 C8 14.68 8 13.36 8 12 C8.99 12 9.98 12 11 12 C11 11.34 11 10.68 11 10 C10.01 9.67 9.02 9.34 8 9 C8.33 7.35 8.66 5.7 9 4 C7.35 4.33 5.7 4.66 4 5 C3.67 4.01 3.34 3.02 3 2 C2.34 2 1.68 2 1 2 C1 2.99 1 3.98 1 5 C0.071875 5.12375 0.071875 5.12375 -0.875 5.25 C-3.18437567 5.81258459 -3.18437567 5.81258459 -4.25 8.0625 C-4.4975 8.701875 -4.745 9.34125 -5 10 C-5.99 9.34 -6.98 8.68 -8 8 C-7.01 8 -6.02 8 -5 8 C-5.33 6.68 -5.66 5.36 -6 4 C-4.125 2.9375 -4.125 2.9375 -2 2 C-1.34 2.33 -0.68 2.66 0 3 C0 2.01 0 1.02 0 0 Z " fill="#202324" transform="translate(24,0)"/>
<path d="M0 0 C9.1796875 -0.29296875 9.1796875 -0.29296875 12 0 C12.66 0.99 13.32 1.98 14 3 C13.34 3 12.68 3 12 3 C12.33 4.65 12.66 6.3 13 8 C18.61 8 24.22 8 30 8 C30.33 9.32 30.66 10.64 31 12 C20.77 12 10.54 12 0 12 C0 8.04 0 4.08 0 0 Z " fill="#FAFAFA" transform="translate(0,38)"/>
<path d="M0 0 C7.92 0 15.84 0 24 0 C24 0.99 24 1.98 24 3 C22.35 3.33 20.7 3.66 19 4 C19 5.32 19 6.64 19 8 C18.01 8 17.02 8 16 8 C16 8.66 16 9.32 16 10 C14.77023437 10.05607422 14.77023437 10.05607422 13.515625 10.11328125 C12.43796875 10.17902344 11.3603125 10.24476562 10.25 10.3125 C8.64898438 10.39951172 8.64898438 10.39951172 7.015625 10.48828125 C3.58624242 10.83354132 3.58624242 10.83354132 0 14 C0 9.38 0 4.76 0 0 Z " fill="#FDFDFD" transform="translate(0,0)"/>
<path d="M0 0 C0.33 0 0.66 0 1 0 C1 1.65 1 3.3 1 5 C4.96 5 8.92 5 13 5 C13 5.66 13 6.32 13 7 C11.82630859 6.98259766 11.82630859 6.98259766 10.62890625 6.96484375 C9.61699219 6.95582031 8.60507813 6.94679688 7.5625 6.9375 C6.04849609 6.92009766 6.04849609 6.92009766 4.50390625 6.90234375 C2.05978933 6.71387324 2.05978933 6.71387324 1 8 C4.96 8 8.92 8 13 8 C13 8.66 13 9.32 13 10 C9.04 10 5.08 10 1 10 C1 10.66 1 11.32 1 12 C4.96 12 8.92 12 13 12 C13 12.66 13 13.32 13 14 C11.82630859 13.98259766 11.82630859 13.98259766 10.62890625 13.96484375 C9.61699219 13.95582031 8.60507813 13.94679688 7.5625 13.9375 C6.04849609 13.92009766 6.04849609 13.92009766 4.50390625 13.90234375 C2.05978933 13.71387324 2.05978933 13.71387324 1 15 C4.96 15 8.92 15 13 15 C13 15.66 13 16.32 13 17 C9.04 17 5.08 17 1 17 C1 17.66 1 18.32 1 19 C3.31 19 5.62 19 8 19 C7.67 19.66 7.34 20.32 7 21 C5.35 21 3.7 21 2 21 C1.67 21.66 1.34 22.32 1 23 C0.34 23 -0.32 23 -1 23 C-1.22527296 19.54254978 -1.42733544 16.08412975 -1.625 12.625 C-1.68945312 11.64015625 -1.75390625 10.6553125 -1.8203125 9.640625 C-1.871875 8.69960938 -1.9234375 7.75859375 -1.9765625 6.7890625 C-2.02893066 5.91975098 -2.08129883 5.05043945 -2.13525391 4.15478516 C-2 2 -2 2 0 0 Z " fill="#817768" transform="translate(4,12)"/>
<path d="M0 0 C2.97 0 5.94 0 9 0 C9 3.63 9 7.26 9 11 C6.03 11 3.06 11 0 11 C0.99 10.67 1.98 10.34 3 10 C3 9.34 3 8.68 3 8 C-0.96 8 -4.92 8 -9 8 C-9 6.35 -9 4.7 -9 3 C-5.92382812 2.70703125 -5.92382812 2.70703125 -2.84765625 2.4140625 C-2.23792969 2.27742188 -1.62820312 2.14078125 -1 2 C-0.67 1.34 -0.34 0.68 0 0 Z " fill="#C0B229" transform="translate(41,31)"/>
<path d="M0 0 C0.66 0 1.32 0 2 0 C2.598125 0.66 3.19625 1.32 3.8125 2 C5.81838933 4.19123419 5.81838933 4.19123419 8.4375 4.4375 C11.4927543 3.91587122 13.46038958 2.74144715 16 1 C16.33 1.33 16.66 1.66 17 2 C18.51469448 2.23192865 20.03754562 2.41215238 21.5625 2.5625 C22.80193359 2.68818359 22.80193359 2.68818359 24.06640625 2.81640625 C24.70449219 2.87699219 25.34257813 2.93757813 26 3 C26 3.33 26 3.66 26 4 C23.03 4 20.06 4 17 4 C16.67 5.32 16.34 6.64 16 8 C15 9 15 9 12.1640625 9.1328125 C10.41222656 9.12894531 10.41222656 9.12894531 8.625 9.125 C7.46226563 9.12757812 6.29953125 9.13015625 5.1015625 9.1328125 C2 9 2 9 -1 8 C-1.33 6.35 -1.66 4.7 -2 3 C-1.34 3 -0.68 3 0 3 C0 2.01 0 1.02 0 0 Z " fill="#CBCBCB" transform="translate(14,38)"/>
<path d="M0 0 C5.61 0 11.22 0 17 0 C17 1.65 17 3.3 17 5 C11.39 5 5.78 5 0 5 C0 3.35 0 1.7 0 0 Z " fill="#0084A3" transform="translate(32,25)"/>
<path d="M0 0 C3.63 0 7.26 0 11 0 C11 0.66 11 1.32 11 2 C11.99 2 12.98 2 14 2 C13.67 3.65 13.34 5.3 13 7 C8.71 6.67 4.42 6.34 0 6 C0 4.02 0 2.04 0 0 Z " fill="#E9DFC9" transform="translate(5,11)"/>
<path d="M0 0 C0.66 0 1.32 0 2 0 C2.33 0.66 2.66 1.32 3 2 C4.65 2 6.3 2 8 2 C8 3.65 8 5.3 8 7 C8.66 7.33 9.32 7.66 10 8 C10 8.66 10 9.32 10 10 C9.01 10 8.02 10 7 10 C7.33 11.98 7.66 13.96 8 16 C5.03 15.505 5.03 15.505 2 15 C2 15.99 2 16.98 2 18 C1.34 18 0.68 18 0 18 C-0.33 16.68 -0.66 15.36 -1 14 C0.98 13.34 2.96 12.68 5 12 C5.33 10.02 5.66 8.04 6 6 C5.34 6 4.68 6 4 6 C4 5.34 4 4.68 4 4 C2.02 4.33 0.04 4.66 -2 5 C-2.66 6.98 -3.32 8.96 -4 11 C-5.32 10.67 -6.64 10.34 -8 10 C-8 9.34 -8 8.68 -8 8 C-7.01 8 -6.02 8 -5 8 C-5 6.02 -5 4.04 -5 2 C-3.35 2.33 -1.7 2.66 0 3 C0 2.01 0 1.02 0 0 Z " fill="#7498A7" transform="translate(25,2)"/>
<path d="M0 0 C3.0625 0.1875 3.0625 0.1875 5.0625 2.1875 C5.3125 4.6875 5.3125 4.6875 5.0625 7.1875 C3.0625 9.1875 3.0625 9.1875 0.0625 9.5 C-0.9275 9.396875 -1.9175 9.29375 -2.9375 9.1875 C-4.9375 6.1875 -4.9375 6.1875 -4.625 3.5625 C-3.63731654 0.1505026 -3.65603948 0.23336422 0 0 Z " fill="#06A974" transform="translate(21.9375,31.8125)"/>
<path d="M0 0 C5.61 0 11.22 0 17 0 C17 1.32 17 2.64 17 4 C11.39 4 5.78 4 0 4 C0 2.68 0 1.36 0 0 Z " fill="#A93B1B" transform="translate(32,44)"/>
<path d="M0 0 C2.97 0 5.94 0 9 0 C9 2.97 9 5.94 9 9 C7.68 9.33 6.36 9.66 5 10 C5 9.34 5 8.68 5 8 C5.66 8 6.32 8 7 8 C7 6.68 7 5.36 7 4 C2.05 4 -2.9 4 -8 4 C-8.33 5.32 -8.66 6.64 -9 8 C-9 6.35 -9 4.7 -9 3 C-5.92382812 2.70703125 -5.92382812 2.70703125 -2.84765625 2.4140625 C-2.23792969 2.27742188 -1.62820312 2.14078125 -1 2 C-0.67 1.34 -0.34 0.68 0 0 Z " fill="#82763F" transform="translate(41,31)"/>
<path d="M0 0 C0.66 0 1.32 0 2 0 C2 6.6 2 13.2 2 20 C6.29 20.33 10.58 20.66 15 21 C15 21.33 15 21.66 15 22 C10.05 22 5.1 22 0 22 C0 14.74 0 7.48 0 0 Z " fill="#C9BBA1" transform="translate(1,15)"/>
<path d="M0 0 C0.66 0 1.32 0 2 0 C2 1.32 2 2.64 2 4 C2.61875 4.268125 3.2375 4.53625 3.875 4.8125 C6 6 6 6 8 9 C7.79511638 11.73178163 7.28363 13.52728333 5.875 15.875 C2.81663109 17.71002135 0.34391796 16.79038061 -3 16 C-3.66 15.34 -4.32 14.68 -5 14 C-4.67 13.01 -4.34 12.02 -4 11 C-3.01 12.485 -3.01 12.485 -2 14 C1.04195427 14.33340471 1.04195427 14.33340471 4 14 C5.29633621 12.93354885 5.29633621 12.93354885 5.0625 10.4375 C5.041875 9.633125 5.02125 8.82875 5 8 C3.02 7.34 1.04 6.68 -1 6 C-0.67 4.02 -0.34 2.04 0 0 Z " fill="#101A16" transform="translate(21,26)"/>
<path d="M0 0 C2.4375 0.375 2.4375 0.375 5 1 C5.33 1.66 5.66 2.32 6 3 C7.32 3 8.64 3 10 3 C10 4.32 10 5.64 10 7 C9.01 7.495 9.01 7.495 8 8 C8.33 6.68 8.66 5.36 9 4 C7.35 4.33 5.7 4.66 4 5 C3.67 4.01 3.34 3.02 3 2 C2.34 2 1.68 2 1 2 C1 2.99 1 3.98 1 5 C0.071875 5.12375 0.071875 5.12375 -0.875 5.25 C-3.18437567 5.81258459 -3.18437567 5.81258459 -4.25 8.0625 C-4.4975 8.701875 -4.745 9.34125 -5 10 C-5.99 9.34 -6.98 8.68 -8 8 C-7.01 8 -6.02 8 -5 8 C-5.33 6.68 -5.66 5.36 -6 4 C-4.125 2.9375 -4.125 2.9375 -2 2 C-1.34 2.33 -0.68 2.66 0 3 C0 2.01 0 1.02 0 0 Z " fill="#1A1B1C" transform="translate(24,0)"/>
<path d="M0 0 C2 2 2 2 2.1875 4.5625 C2 7 2 7 1 8 C-0.66617115 8.04063832 -2.33388095 8.042721 -4 8 C-4.33 6.35 -4.66 4.7 -5 3 C-3.35 2.01 -1.7 1.02 0 0 Z " fill="#202D2D" transform="translate(28,6)"/>
<path d="M0 0 C1.2065625 0.0309375 1.2065625 0.0309375 2.4375 0.0625 C1.7775 0.475 1.1175 0.8875 0.4375 1.3125 C-0.2225 1.89 -0.8825 2.4675 -1.5625 3.0625 C-1.5625 4.3825 -1.5625 5.7025 -1.5625 7.0625 C0.0875 7.0625 1.7375 7.0625 3.4375 7.0625 C3.7675 5.4125 4.0975 3.7625 4.4375 2.0625 C4.7675 2.0625 5.0975 2.0625 5.4375 2.0625 C5.625 4.9375 5.625 4.9375 5.4375 8.0625 C2.4375 10.0625 2.4375 10.0625 -0.125 9.8125 C-2.5625 9.0625 -2.5625 9.0625 -4.5625 7.0625 C-3.85142216 0.09393713 -3.85142216 0.09393713 0 0 Z " fill="#070A0A" transform="translate(25.5625,5.9375)"/>
<path d="M0 0 C4.62 0 9.24 0 14 0 C14 1.65 14 3.3 14 5 C9.38 5 4.76 5 0 5 C0 4.67 0 4.34 0 4 C5.445 3.505 5.445 3.505 11 3 C11 2.67 11 2.34 11 2 C7.37 1.67 3.74 1.34 0 1 C0 0.67 0 0.34 0 0 Z " fill="#00CEEE" transform="translate(35,25)"/>
<path d="M0 0 C0.99 0.66 1.98 1.32 3 2 C2.67 4.97 2.34 7.94 2 11 C1.34 11 0.68 11 0 11 C-2.08387097 6.58709677 -2.08387097 6.58709677 -1.6875 3.8125 C-1 2 -1 2 0 0 Z " fill="#3B484A" transform="translate(21,13)"/>
<path d="M0 0 C0.66 0 1.32 0 2 0 C2.33 1.32 2.66 2.64 3 4 C1.35 4.33 -0.3 4.66 -2 5 C-2.66 6.98 -3.32 8.96 -4 11 C-5.32 10.67 -6.64 10.34 -8 10 C-8 9.34 -8 8.68 -8 8 C-7.01 8 -6.02 8 -5 8 C-5 6.02 -5 4.04 -5 2 C-3.35 2.33 -1.7 2.66 0 3 C0 2.01 0 1.02 0 0 Z " fill="#658994" transform="translate(25,2)"/>
<path d="M0 0 C0 0.66 0 1.32 0 2 C-3.12180401 2.96661363 -5.52083795 2.98988909 -8.75 2.5625 C-9.94882812 2.40974609 -9.94882812 2.40974609 -11.171875 2.25390625 C-11.77515625 2.17011719 -12.3784375 2.08632813 -13 2 C-13 1.67 -13 1.34 -13 1 C-11.58366664 0.83052421 -10.16691467 0.66454493 -8.75 0.5 C-7.56664062 0.36078125 -7.56664062 0.36078125 -6.359375 0.21875 C-4 0 -4 0 0 0 Z M-13 3 C-10.03 3 -7.06 3 -4 3 C-4 3.33 -4 3.66 -4 4 C-6.97 4 -9.94 4 -13 4 C-13 3.67 -13 3.34 -13 3 Z " fill="#2D2D2B" transform="translate(44,39)"/>
<path d="M0 0 C0.625 1.875 0.625 1.875 1 4 C-1 6 -1 6 -4.125 6.125 C-5.548125 6.063125 -5.548125 6.063125 -7 6 C-7 5.01 -7 4.02 -7 3 C-6.21625 2.87625 -5.4325 2.7525 -4.625 2.625 C-1.85942178 2.20882007 -1.85942178 2.20882007 0 0 Z " fill="#06E69E" transform="translate(26,35)"/>
<path d="M0 0 C1.9375 0.375 1.9375 0.375 4 1 C4.33 1.66 4.66 2.32 5 3 C5.66 2.34 6.32 1.68 7 1 C6.67 2.32 6.34 3.64 6 5 C4.35 5 2.7 5 1 5 C0.67 3.35 0.34 1.7 0 0 Z " fill="#475858" transform="translate(23,9)"/>
<path d="M0 0 C0.66 0 1.32 0 2 0 C2 1.32 2 2.64 2 4 C2.66 4.33 3.32 4.66 4 5 C2.35 5.33 0.7 5.66 -1 6 C-0.67 4.02 -0.34 2.04 0 0 Z " fill="#26332B" transform="translate(21,26)"/>
<path d="M0 0 C2.625 -0.1875 2.625 -0.1875 5 0 C4.38125 0.4125 3.7625 0.825 3.125 1.25 C0.93231719 3.05573879 0.07211583 4.4090534 -1 7 C-1.625 5.1875 -1.625 5.1875 -2 3 C-1.34 2.01 -0.68 1.02 0 0 Z " fill="#0F1516" transform="translate(23,6)"/>
<path d="M0 0 C1.65 0.33 3.3 0.66 5 1 C4.67 1.99 4.34 2.98 4 4 C3.67 3.34 3.34 2.68 3 2 C2.34 2 1.68 2 1 2 C1 2.99 1 3.98 1 5 C0.01 4.67 -0.98 4.34 -2 4 C-1.34 4 -0.68 4 0 4 C0 2.68 0 1.36 0 0 Z " fill="#181B1C" transform="translate(24,0)"/>
</svg>
